<svg xmlns="http://www.w3.org/2000/svg" width="800" height="500" viewBox="0 0 800 500">
  <rect width="800" height="500" fill="#f0f2f5"/>
  <!-- Sidebar -->
  <rect width="200" height="500" fill="#16213e"/>
  <circle cx="100" cy="60" r="30" fill="#e94560"/>
  <text x="100" y="65" font-family="Arial" font-size="24" fill="white" text-anchor="middle">MI</text>
  <text x="100" y="110" font-family="Arial" font-size="14" fill="white" text-anchor="middle">Mark Instructor</text>
  <text x="100" y="130" font-family="Arial" font-size="11" fill="#888" text-anchor="middle">instructor@email.com</text>
  <rect x="20" y="170" width="160" height="35" rx="5" fill="#e94560"/>
  <text x="100" y="193" font-family="Arial" font-size="13" fill="white" text-anchor="middle">Dashboard</text>
  <text x="100" y="235" font-family="Arial" font-size="13" fill="#888" text-anchor="middle">My Courses</text>
  <text x="100" y="270" font-family="Arial" font-size="13" fill="#888" text-anchor="middle">Students</text>
  <text x="100" y="305" font-family="Arial" font-size="13" fill="#888" text-anchor="middle">Assignments</text>
  <text x="100" y="340" font-family="Arial" font-size="13" fill="#888" text-anchor="middle">Quizzes</text>
  <text x="100" y="375" font-family="Arial" font-size="13" fill="#888" text-anchor="middle">Analytics</text>
  <!-- Main Content -->
  <text x="230" y="45" font-family="Segoe UI, Arial" font-size="22" font-weight="bold" fill="#333">Instructor Dashboard</text>
  <!-- Stats Cards -->
  <g transform="translate(220, 60)">
    <rect width="130" height="80" rx="10" fill="white"/>
    <text x="15" y="30" font-family="Arial" font-size="11" fill="#888">Total Courses</text>
    <text x="15" y="60" font-family="Arial" font-size="28" font-weight="bold" fill="#e94560">8</text>
  </g>
  <g transform="translate(365, 60)">
    <rect width="130" height="80" rx="10" fill="white"/>
    <text x="15" y="30" font-family="Arial" font-size="11" fill="#888">Total Students</text>
    <text x="15" y="60" font-family="Arial" font-size="28" font-weight="bold" fill="#4facfe">234</text>
  </g>
  <g transform="translate(510, 60)">
    <rect width="130" height="80" rx="10" fill="white"/>
    <text x="15" y="30" font-family="Arial" font-size="11" fill="#888">Pending Reviews</text>
    <text x="15" y="60" font-family="Arial" font-size="28" font-weight="bold" fill="#f59e0b">12</text>
  </g>
  <g transform="translate(655, 60)">
    <rect width="130" height="80" rx="10" fill="white"/>
    <text x="15" y="30" font-family="Arial" font-size="11" fill="#888">Avg Rating</text>
    <text x="15" y="60" font-family="Arial" font-size="28" font-weight="bold" fill="#10b981">4.8</text>
  </g>
  <!-- Chart Section -->
  <rect x="220" y="160" width="360" height="200" rx="10" fill="white"/>
  <text x="240" y="190" font-family="Arial" font-size="14" font-weight="bold" fill="#333">Enrollment Analytics</text>
  <!-- Bar Chart -->
  <g transform="translate(260, 210)">
    <rect x="0" y="80" width="40" height="70" fill="#e94560"/>
    <rect x="60" y="50" width="40" height="100" fill="#4facfe"/>
    <rect x="120" y="30" width="40" height="120" fill="#10b981"/>
    <rect x="180" y="60" width="40" height="90" fill="#f59e0b"/>
    <rect x="240" y="40" width="40" height="110" fill="#8b5cf6"/>
    <text x="20" y="165" font-family="Arial" font-size="10" fill="#888" text-anchor="middle">Jan</text>
    <text x="80" y="165" font-family="Arial" font-size="10" fill="#888" text-anchor="middle">Feb</text>
    <text x="140" y="165" font-family="Arial" font-size="10" fill="#888" text-anchor="middle">Mar</text>
    <text x="200" y="165" font-family="Arial" font-size="10" fill="#888" text-anchor="middle">Apr</text>
    <text x="260" y="165" font-family="Arial" font-size="10" fill="#888" text-anchor="middle">May</text>
  </g>
  <!-- Recent Submissions -->
  <rect x="600" y="160" width="185" height="200" rx="10" fill="white"/>
  <text x="620" y="190" font-family="Arial" font-size="14" font-weight="bold" fill="#333">Recent Submissions</text>
  <rect x="615" y="205" width="155" height="35" rx="5" fill="#fef3c7"/>
  <text x="625" y="225" font-family="Arial" font-size="11" fill="#333">Assignment #12</text>
  <text x="625" y="235" font-family="Arial" font-size="9" fill="#888">by Alice - 2h ago</text>
  <rect x="615" y="250" width="155" height="35" rx="5" fill="#dbeafe"/>
  <text x="625" y="270" font-family="Arial" font-size="11" fill="#333">Quiz Attempt</text>
  <text x="625" y="280" font-family="Arial" font-size="9" fill="#888">by Bob - 4h ago</text>
  <rect x="615" y="295" width="155" height="35" rx="5" fill="#dcfce7"/>
  <text x="625" y="315" font-family="Arial" font-size="11" fill="#333">Project Upload</text>
  <text x="625" y="325" font-family="Arial" font-size="9" fill="#888">by Carol - 6h ago</text>
  <!-- Course Performance -->
  <rect x="220" y="380" width="565" height="100" rx="10" fill="white"/>
  <text x="240" y="410" font-family="Arial" font-size="14" font-weight="bold" fill="#333">Top Performing Courses</text>
  <g transform="translate(240, 425)">
    <rect width="170" height="45" rx="5" fill="#f0f9ff"/>
    <text x="10" y="20" font-family="Arial" font-size="11" font-weight="bold" fill="#333">Web Development</text>
    <text x="10" y="35" font-family="Arial" font-size="10" fill="#4facfe">156 students | 4.9 rating</text>
  </g>
  <g transform="translate(430, 425)">
    <rect width="170" height="45" rx="5" fill="#fdf4ff"/>
    <text x="10" y="20" font-family="Arial" font-size="11" font-weight="bold" fill="#333">React Masterclass</text>
    <text x="10" y="35" font-family="Arial" font-size="10" fill="#a855f7">78 students | 4.7 rating</text>
  </g>
  <g transform="translate(620, 425)">
    <rect width="150" height="45" rx="5" fill="#f0fdf4"/>
    <text x="10" y="20" font-family="Arial" font-size="11" font-weight="bold" fill="#333">Node.js Basics</text>
    <text x="10" y="35" font-family="Arial" font-size="10" fill="#22c55e">45 students | 4.6 rating</text>
  </g>
</svg>
