<svg xmlns="http://www.w3.org/2000/svg" width="800" height="500" viewBox="0 0 800 500">
  <rect width="800" height="500" fill="#f0f2f5"/>
  <!-- Sidebar -->
  <rect width="200" height="500" fill="#1a1a2e"/>
  <circle cx="100" cy="60" r="30" fill="#4facfe"/>
  <text x="100" y="65" font-family="Arial" font-size="24" fill="white" text-anchor="middle">JS</text>
  <text x="100" y="110" font-family="Arial" font-size="14" fill="white" text-anchor="middle">John Student</text>
  <text x="100" y="130" font-family="Arial" font-size="11" fill="#888" text-anchor="middle">student@email.com</text>
  <rect x="20" y="170" width="160" height="35" rx="5" fill="#4facfe"/>
  <text x="100" y="193" font-family="Arial" font-size="13" fill="white" text-anchor="middle">Dashboard</text>
  <text x="100" y="235" font-family="Arial" font-size="13" fill="#888" text-anchor="middle">My Courses</text>
  <text x="100" y="270" font-family="Arial" font-size="13" fill="#888" text-anchor="middle">Assignments</text>
  <text x="100" y="305" font-family="Arial" font-size="13" fill="#888" text-anchor="middle">Quizzes</text>
  <text x="100" y="340" font-family="Arial" font-size="13" fill="#888" text-anchor="middle">Certificates</text>
  <text x="100" y="375" font-family="Arial" font-size="13" fill="#888" text-anchor="middle">Forums</text>
  <!-- Main Content -->
  <text x="230" y="45" font-family="Segoe UI, Arial" font-size="22" font-weight="bold" fill="#333">Welcome back, John!</text>
  <!-- Stats Cards -->
  <g transform="translate(220, 60)">
    <rect width="130" height="80" rx="10" fill="white"/>
    <text x="15" y="30" font-family="Arial" font-size="11" fill="#888">Enrolled Courses</text>
    <text x="15" y="60" font-family="Arial" font-size="28" font-weight="bold" fill="#4facfe">5</text>
  </g>
  <g transform="translate(365, 60)">
    <rect width="130" height="80" rx="10" fill="white"/>
    <text x="15" y="30" font-family="Arial" font-size="11" fill="#888">Completed</text>
    <text x="15" y="60" font-family="Arial" font-size="28" font-weight="bold" fill="#10b981">3</text>
  </g>
  <g transform="translate(510, 60)">
    <rect width="130" height="80" rx="10" fill="white"/>
    <text x="15" y="30" font-family="Arial" font-size="11" fill="#888">Certificates</text>
    <text x="15" y="60" font-family="Arial" font-size="28" font-weight="bold" fill="#f59e0b">2</text>
  </g>
  <g transform="translate(655, 60)">
    <rect width="130" height="80" rx="10" fill="white"/>
    <text x="15" y="30" font-family="Arial" font-size="11" fill="#888">Avg Score</text>
    <text x="15" y="60" font-family="Arial" font-size="28" font-weight="bold" fill="#8b5cf6">87%</text>
  </g>
  <!-- Progress Section -->
  <rect x="220" y="160" width="360" height="200" rx="10" fill="white"/>
  <text x="240" y="190" font-family="Arial" font-size="14" font-weight="bold" fill="#333">Learning Progress</text>
  <g transform="translate(240, 210)">
    <text x="0" y="15" font-family="Arial" font-size="12" fill="#666">Web Development</text>
    <rect y="25" width="320" height="8" rx="4" fill="#e5e7eb"/>
    <rect y="25" width="256" height="8" rx="4" fill="#4facfe"/>
    <text x="300" y="15" font-family="Arial" font-size="11" fill="#4facfe">80%</text>
  </g>
  <g transform="translate(240, 260)">
    <text x="0" y="15" font-family="Arial" font-size="12" fill="#666">Data Science</text>
    <rect y="25" width="320" height="8" rx="4" fill="#e5e7eb"/>
    <rect y="25" width="176" height="8" rx="4" fill="#10b981"/>
    <text x="300" y="15" font-family="Arial" font-size="11" fill="#10b981">55%</text>
  </g>
  <g transform="translate(240, 310)">
    <text x="0" y="15" font-family="Arial" font-size="12" fill="#666">UI/UX Design</text>
    <rect y="25" width="320" height="8" rx="4" fill="#e5e7eb"/>
    <rect y="25" width="96" height="8" rx="4" fill="#f59e0b"/>
    <text x="300" y="15" font-family="Arial" font-size="11" fill="#f59e0b">30%</text>
  </g>
  <!-- Recent Activity -->
  <rect x="600" y="160" width="185" height="200" rx="10" fill="white"/>
  <text x="620" y="190" font-family="Arial" font-size="14" font-weight="bold" fill="#333">Recent Activity</text>
  <circle cx="630" cy="220" r="5" fill="#10b981"/>
  <text x="645" y="225" font-family="Arial" font-size="11" fill="#666">Quiz completed</text>
  <circle cx="630" cy="250" r="5" fill="#4facfe"/>
  <text x="645" y="255" font-family="Arial" font-size="11" fill="#666">Lesson viewed</text>
  <circle cx="630" cy="280" r="5" fill="#f59e0b"/>
  <text x="645" y="285" font-family="Arial" font-size="11" fill="#666">Assignment due</text>
  <circle cx="630" cy="310" r="5" fill="#8b5cf6"/>
  <text x="645" y="315" font-family="Arial" font-size="11" fill="#666">Forum reply</text>
  <!-- Upcoming -->
  <rect x="220" y="380" width="565" height="100" rx="10" fill="white"/>
  <text x="240" y="410" font-family="Arial" font-size="14" font-weight="bold" fill="#333">Upcoming Deadlines</text>
  <rect x="240" y="425" width="160" height="40" rx="5" fill="#fef3c7"/>
  <text x="250" y="445" font-family="Arial" font-size="11" fill="#92400e">Assignment Due</text>
  <text x="250" y="458" font-family="Arial" font-size="10" fill="#b45309">Tomorrow, 5:00 PM</text>
  <rect x="420" y="425" width="160" height="40" rx="5" fill="#dbeafe"/>
  <text x="430" y="445" font-family="Arial" font-size="11" fill="#1e40af">Quiz Available</text>
  <text x="430" y="458" font-family="Arial" font-size="10" fill="#3b82f6">Dec 15, 2024</text>
  <rect x="600" y="425" width="160" height="40" rx="5" fill="#dcfce7"/>
  <text x="610" y="445" font-family="Arial" font-size="11" fill="#166534">Live Session</text>
  <text x="610" y="458" font-family="Arial" font-size="10" fill="#22c55e">Dec 20, 3:00 PM</text>
</svg>
